<svg width="64" height="60" viewBox="0 0 64 60" fill="none" xmlns="http://www.w3.org/2000/svg">
<ellipse cx="32" cy="57.1429" rx="32" ry="2.28571" fill="#E5E5E5"/>
<path d="M9.14282 50.8572C9.14282 50.5416 9.39866 50.2858 9.71425 50.2858H17.7143C18.0298 50.2858 18.2857 50.5416 18.2857 50.8572V56.5715C18.2857 56.8871 18.0298 57.1429 17.7143 57.1429H9.71425C9.39866 57.1429 9.14282 56.8871 9.14282 56.5715V50.8572Z" fill="#4D4D4D"/>
<rect x="9.14282" y="50.2858" width="9.14286" height="2.28571" fill="#333333"/>
<path d="M45.7142 50.8572C45.7142 50.5416 45.9701 50.2858 46.2857 50.2858H54.2857C54.6013 50.2858 54.8571 50.5416 54.8571 50.8572V56.5715C54.8571 56.8871 54.6013 57.1429 54.2857 57.1429H46.2857C45.9701 57.1429 45.7142 56.8871 45.7142 56.5715V50.8572Z" fill="#4D4D4D"/>
<rect x="45.7142" y="50.2858" width="9.14286" height="2.28571" fill="#333333"/>
<path d="M6.85718 0.285714C6.85718 0.127918 6.9851 0 7.14289 0H56.8572C57.015 0 57.1429 0.127919 57.1429 0.285714V50C57.1429 50.1578 57.015 50.2857 56.8572 50.2857H7.14289C6.9851 50.2857 6.85718 50.1578 6.85718 50V0.285714Z" fill="#4D4D4D"/>
<rect x="9.14282" y="2.28577" width="45.7143" height="2.28571" fill="#333333"/>
<rect x="9.14282" y="48" width="45.7143" height="2.28571" transform="rotate(-90 9.14282 48)" fill="#333333"/>
<ellipse cx="29.7143" cy="25.1429" rx="13.7143" ry="13.7143" fill="#1A1A1A"/>
<circle cx="29.7143" cy="25.1429" r="5.71429" fill="#828282"/>
<path fill-rule="evenodd" clip-rule="evenodd" d="M29.7143 10.2858C30.3455 10.2858 30.8571 10.7974 30.8571 11.4286V16.0001C30.8571 16.6312 30.3455 17.1429 29.7143 17.1429C29.0831 17.1429 28.5714 16.6312 28.5714 16.0001V11.4286C28.5714 10.7974 29.0831 10.2858 29.7143 10.2858Z" fill="#4D4D4D"/>
<path fill-rule="evenodd" clip-rule="evenodd" d="M29.7143 33.1428C30.3455 33.1428 30.8571 33.6545 30.8571 34.2857V38.8571C30.8571 39.4883 30.3455 40 29.7143 40C29.0831 40 28.5714 39.4883 28.5714 38.8571V34.2857C28.5714 33.6545 29.0831 33.1428 29.7143 33.1428Z" fill="#4D4D4D"/>
<path fill-rule="evenodd" clip-rule="evenodd" d="M40.22 14.6373C40.6663 15.0837 40.6663 15.8073 40.22 16.2536L36.9875 19.4861C36.5412 19.9324 35.8176 19.9324 35.3713 19.4861C34.9249 19.0398 34.9249 18.3161 35.3713 17.8698L38.6037 14.6373C39.0501 14.191 39.7737 14.191 40.22 14.6373Z" fill="#4D4D4D"/>
<path fill-rule="evenodd" clip-rule="evenodd" d="M24.0575 30.7998C24.5038 31.2461 24.5038 31.9698 24.0575 32.4161L20.825 35.6486C20.3787 36.0949 19.6551 36.0949 19.2088 35.6486C18.7625 35.2022 18.7625 34.4786 19.2088 34.0323L22.4413 30.7998C22.8876 30.3535 23.6112 30.3535 24.0575 30.7998Z" fill="#4D4D4D"/>
<path fill-rule="evenodd" clip-rule="evenodd" d="M44.5714 25.1429C44.5714 25.774 44.0597 26.2857 43.4286 26.2857H38.8571C38.2259 26.2857 37.7143 25.774 37.7143 25.1429C37.7143 24.5117 38.2259 24 38.8571 24H43.4286C44.0597 24 44.5714 24.5117 44.5714 25.1429Z" fill="#4D4D4D"/>
<path fill-rule="evenodd" clip-rule="evenodd" d="M21.7142 25.1429C21.7142 25.774 21.2026 26.2857 20.5714 26.2857H15.9999C15.3688 26.2857 14.8571 25.774 14.8571 25.1429C14.8571 24.5117 15.3688 24 15.9999 24H20.5714C21.2026 24 21.7142 24.5117 21.7142 25.1429Z" fill="#4D4D4D"/>
<path fill-rule="evenodd" clip-rule="evenodd" d="M40.2201 35.6483C39.7738 36.0946 39.0501 36.0946 38.6038 35.6483L35.3713 32.4158C34.925 31.9695 34.925 31.2459 35.3713 30.7996C35.8177 30.3533 36.5413 30.3533 36.9876 30.7996L40.2201 34.0321C40.6664 34.4784 40.6664 35.202 40.2201 35.6483Z" fill="#4D4D4D"/>
<path fill-rule="evenodd" clip-rule="evenodd" d="M24.0577 19.486C23.6114 19.9323 22.8878 19.9323 22.4415 19.486L19.209 16.2535C18.7627 15.8072 18.7627 15.0836 19.209 14.6372C19.6553 14.1909 20.3789 14.1909 20.8252 14.6372L24.0577 17.8697C24.504 18.316 24.504 19.0397 24.0577 19.486Z" fill="#4D4D4D"/>
<path fill-rule="evenodd" clip-rule="evenodd" d="M50.2857 22.7142C50.9958 22.7142 51.5714 23.2899 51.5714 23.9999V33.1428C51.5714 33.8529 50.9958 34.4285 50.2857 34.4285C49.5756 34.4285 49 33.8529 49 33.1428V23.9999C49 23.2899 49.5756 22.7142 50.2857 22.7142Z" fill="#828282"/>
<path d="M50.2857 18.8572C51.2325 18.8572 52 18.0896 52 17.1429C52 16.1961 51.2325 15.4286 50.2857 15.4286C49.3389 15.4286 48.5714 16.1961 48.5714 17.1429C48.5714 18.0896 49.3389 18.8572 50.2857 18.8572Z" fill="#828282"/>
</svg>
